HIERARCHY
ROOT mixamorig:Hips
{
	OFFSET 0.000000 94.554123 0.000000
	CHANNELS 6 Xposition Yposition Zposition Xrotation Yrotation Zrotation
	JOINT mixamorig:Spine
	{
		OFFSET 0.000000 9.988899 -0.514100
		CHANNELS 3 Xrotation Yrotation Zrotation
		JOINT mixamorig:Spine1
		{
			OFFSET 0.000000 11.653679 -0.599751
			CHANNELS 3 Xrotation Yrotation Zrotation
			JOINT mixamorig:Spine2
			{
				OFFSET 0.000000 13.318481 -0.685429
				CHANNELS 3 Xrotation Yrotation Zrotation
				JOINT mixamorig:Neck
				{
					OFFSET 0.000000 14.983261 -0.771106
					CHANNELS 3 Xrotation Yrotation Zrotation
					JOINT mixamorig:Head
					{
						OFFSET 0.000000 10.043304 2.801000
						CHANNELS 3 Xrotation Yrotation Zrotation
						JOINT mixamorig:HeadTop_End
						{
							OFFSET 0.000000 19.370499 5.402200
							CHANNELS 3 Xrotation Yrotation Zrotation
							End Site
							{
								OFFSET 0.000000 20.109695 0.000000
							}
						}
					}
				}
				JOINT mixamorig:LeftShoulder
				{
					OFFSET 5.890800 13.419983 -0.745926
					CHANNELS 3 Xrotation Yrotation Zrotation
					JOINT mixamorig:LeftArm
					{
						OFFSET 11.984735 -3.101700 0.050316
						CHANNELS 3 Xrotation Yrotation Zrotation
						JOINT mixamorig:LeftForeArm
						{
							OFFSET 23.321905 0.000000 0.000000
							CHANNELS 3 Xrotation Yrotation Zrotation
							JOINT mixamorig:LeftHand
							{
								OFFSET 25.153908 0.000000 0.000001
								CHANNELS 3 Xrotation Yrotation Zrotation
								JOINT mixamorig:LeftHandThumb1
								{
									OFFSET 2.688713 -1.230148 2.514884
									CHANNELS 3 Xrotation Yrotation Zrotation
									JOINT mixamorig:LeftHandThumb2
									{
										OFFSET 2.405396 -1.388763 1.388756
										CHANNELS 3 Xrotation Yrotation Zrotation
										JOINT mixamorig:LeftHandThumb3
										{
											OFFSET 2.395073 -1.382797 1.382794
											CHANNELS 3 Xrotation Yrotation Zrotation
											JOINT mixamorig:LeftHandThumb4
											{
												OFFSET 1.881668 -1.086380 1.086381
												CHANNELS 3 Xrotation Yrotation Zrotation
												End Site
												{
													OFFSET 1.674576 -1.061920 1.403283
												}
											}
										}
									}
								}
								JOINT mixamorig:LeftHandIndex1
								{
									OFFSET 8.511635 -0.363083 2.405464
									CHANNELS 3 Xrotation Yrotation Zrotation
									JOINT mixamorig:LeftHandIndex2
									{
										OFFSET 3.013802 0.000000 0.000000
										CHANNELS 3 Xrotation Yrotation Zrotation
										JOINT mixamorig:LeftHandIndex3
										{
											OFFSET 2.795700 0.000000 0.000000
											CHANNELS 3 Xrotation Yrotation Zrotation
											JOINT mixamorig:LeftHandIndex4
											{
												OFFSET 2.454002 0.000000 0.000000
												CHANNELS 3 Xrotation Yrotation Zrotation
												End Site
												{
													OFFSET 2.453995 0.000000 -0.002500
												}
											}
										}
									}
								}
								JOINT mixamorig:LeftHandMiddle1
								{
									OFFSET 8.357803 0.000000 0.000000
									CHANNELS 3 Xrotation Yrotation Zrotation
									JOINT mixamorig:LeftHandMiddle2
									{
										OFFSET 3.307404 0.000000 0.000000
										CHANNELS 3 Xrotation Yrotation Zrotation
										JOINT mixamorig:LeftHandMiddle3
										{
											OFFSET 3.061005 0.000000 0.000000
											CHANNELS 3 Xrotation Yrotation Zrotation
											JOINT mixamorig:LeftHandMiddle4
											{
												OFFSET 2.645699 0.000000 0.000000
												CHANNELS 3 Xrotation Yrotation Zrotation
												End Site
												{
													OFFSET 2.645706 0.000000 -0.001900
												}
											}
										}
									}
								}
								JOINT mixamorig:LeftHandRing1
								{
									OFFSET 8.235176 -0.073303 -2.048958
									CHANNELS 3 Xrotation Yrotation Zrotation
									JOINT mixamorig:LeftHandRing2
									{
										OFFSET 2.814804 0.000000 0.000000
										CHANNELS 3 Xrotation Yrotation Zrotation
										JOINT mixamorig:LeftHandRing3
										{
											OFFSET 2.662102 0.000000 0.000000
											CHANNELS 3 Xrotation Yrotation Zrotation
											JOINT mixamorig:LeftHandRing4
											{
												OFFSET 2.324699 0.000000 0.000000
												CHANNELS 3 Xrotation Yrotation Zrotation
												End Site
												{
													OFFSET 2.324707 0.000000 0.000400
												}
											}
										}
									}
								}
								JOINT mixamorig:LeftHandPinky1
								{
									OFFSET 7.776482 -0.344757 -4.135562
									CHANNELS 3 Xrotation Yrotation Zrotation
									JOINT mixamorig:LeftHandPinky2
									{
										OFFSET 2.337105 0.000000 0.000000
										CHANNELS 3 Xrotation Yrotation Zrotation
										JOINT mixamorig:LeftHandPinky3
										{
											OFFSET 1.932404 0.000000 0.000000
											CHANNELS 3 Xrotation Yrotation Zrotation
											JOINT mixamorig:LeftHandPinky4
											{
												OFFSET 1.642700 0.000000 0.000000
												CHANNELS 3 Xrotation Yrotation Zrotation
												End Site
												{
													OFFSET 1.642700 0.000000 -0.000500
												}
											}
										}
									}
								}
							}
						}
					}
				}
				JOINT mixamorig:RightShoulder
				{
					OFFSET -5.890800 13.419998 -0.796293
					CHANNELS 3 Xrotation Yrotation Zrotation
					JOINT mixamorig:RightArm
					{
						OFFSET -11.984732 -3.101715 -0.050333
						CHANNELS 3 Xrotation Yrotation Zrotation
						JOINT mixamorig:RightForeArm
						{
							OFFSET -23.311098 0.000000 0.000001
							CHANNELS 3 Xrotation Yrotation Zrotation
							JOINT mixamorig:RightHand
							{
								OFFSET -25.158005 0.000000 0.000001
								CHANNELS 3 Xrotation Yrotation Zrotation
								JOINT mixamorig:RightHandThumb1
								{
									OFFSET -2.727959 -1.171844 2.549707
									CHANNELS 3 Xrotation Yrotation Zrotation
									JOINT mixamorig:RightHandThumb2
									{
										OFFSET -2.425117 -1.400146 1.400141
										CHANNELS 3 Xrotation Yrotation Zrotation
										JOINT mixamorig:RightHandThumb3
										{
											OFFSET -2.302261 -1.329208 1.329210
											CHANNELS 3 Xrotation Yrotation Zrotation
											JOINT mixamorig:RightHandThumb4
											{
												OFFSET -1.839920 -1.062286 1.062279
												CHANNELS 3 Xrotation Yrotation Zrotation
												End Site
												{
													OFFSET -1.522240 -1.000397 1.524534
												}
											}
										}
									}
								}
								JOINT mixamorig:RightHandIndex1
								{
									OFFSET -8.415245 -0.274536 2.401452
									CHANNELS 3 Xrotation Yrotation Zrotation
									JOINT mixamorig:RightHandIndex2
									{
										OFFSET -3.031937 0.000000 0.000000
										CHANNELS 3 Xrotation Yrotation Zrotation
										JOINT mixamorig:RightHandIndex3
										{
											OFFSET -2.839401 0.000000 0.000000
											CHANNELS 3 Xrotation Yrotation Zrotation
											JOINT mixamorig:RightHandIndex4
											{
												OFFSET -2.415825 0.000000 0.000000
												CHANNELS 3 Xrotation Yrotation Zrotation
												End Site
												{
													OFFSET -2.415810 -0.000137 -0.011099
												}
											}
										}
									}
								}
								JOINT mixamorig:RightHandMiddle1
								{
									OFFSET -8.445801 0.000000 0.000000
									CHANNELS 3 Xrotation Yrotation Zrotation
									JOINT mixamorig:RightHandMiddle2
									{
										OFFSET -3.261909 0.000000 0.000000
										CHANNELS 3 Xrotation Yrotation Zrotation
										JOINT mixamorig:RightHandMiddle3
										{
											OFFSET -3.026810 0.000000 0.000000
											CHANNELS 3 Xrotation Yrotation Zrotation
											JOINT mixamorig:RightHandMiddle4
											{
												OFFSET -2.703903 0.000000 0.000000
												CHANNELS 3 Xrotation Yrotation Zrotation
												End Site
												{
													OFFSET -2.703903 -0.000031 -0.002500
												}
											}
										}
									}
								}
								JOINT mixamorig:RightHandRing1
								{
									OFFSET -8.515076 0.086319 -2.037783
									CHANNELS 3 Xrotation Yrotation Zrotation
									JOINT mixamorig:RightHandRing2
									{
										OFFSET -2.681702 0.000000 0.000000
										CHANNELS 3 Xrotation Yrotation Zrotation
										JOINT mixamorig:RightHandRing3
										{
											OFFSET -2.605904 0.000000 0.000000
											CHANNELS 3 Xrotation Yrotation Zrotation
											JOINT mixamorig:RightHandRing4
											{
												OFFSET -2.190498 0.000000 0.000000
												CHANNELS 3 Xrotation Yrotation Zrotation
												End Site
												{
													OFFSET -2.190506 0.000031 0.001400
												}
											}
										}
									}
								}
								JOINT mixamorig:RightHandPinky1
								{
									OFFSET -7.677589 -0.312988 -4.019109
									CHANNELS 3 Xrotation Yrotation Zrotation
									JOINT mixamorig:RightHandPinky2
									{
										OFFSET -2.464798 0.000000 0.000000
										CHANNELS 3 Xrotation Yrotation Zrotation
										JOINT mixamorig:RightHandPinky3
										{
											OFFSET -1.935104 0.000000 0.000000
											CHANNELS 3 Xrotation Yrotation Zrotation
											JOINT mixamorig:RightHandPinky4
											{
												OFFSET -1.670403 0.000000 0.000000
												CHANNELS 3 Xrotation Yrotation Zrotation
												End Site
												{
													OFFSET -1.670395 -0.000015 -0.000800
												}
											}
										}
									}
								}
							}
						}
					}
				}
			}
		}
	}
	JOINT mixamorig:LeftUpLeg
	{
		OFFSET 8.773100 -5.559700 -1.002700
		CHANNELS 3 Xrotation Yrotation Zrotation
		JOINT mixamorig:LeftLeg
		{
			OFFSET 0.054829 -40.680889 -3.279527
			CHANNELS 3 Xrotation Yrotation Zrotation
			JOINT mixamorig:LeftFoot
			{
				OFFSET -0.054837 -37.885715 -1.253853
				CHANNELS 3 Xrotation Yrotation Zrotation
				JOINT mixamorig:LeftToeBase
				{
					OFFSET -0.956007 -9.084614 13.445478
					CHANNELS 3 Xrotation Yrotation Zrotation
					JOINT mixamorig:LeftToe_End
					{
						OFFSET -0.647369 0.327814 6.792853
						CHANNELS 3 Xrotation Yrotation Zrotation
						End Site
						{
							OFFSET -0.647369 0.327814 6.792854
						}
					}
				}
			}
		}
	}
	JOINT mixamorig:RightUpLeg
	{
		OFFSET -8.773100 -5.559700 -1.301000
		CHANNELS 3 Xrotation Yrotation Zrotation
		JOINT mixamorig:RightLeg
		{
			OFFSET -0.054804 -40.680939 -2.697344
			CHANNELS 3 Xrotation Yrotation Zrotation
			JOINT mixamorig:RightFoot
			{
				OFFSET 0.054807 -37.885651 -1.441477
				CHANNELS 3 Xrotation Yrotation Zrotation
				JOINT mixamorig:RightToeBase
				{
					OFFSET 0.955908 -9.085550 13.639909
					CHANNELS 3 Xrotation Yrotation Zrotation
					JOINT mixamorig:RightToe_End
					{
						OFFSET 0.647336 0.327335 6.933457
						CHANNELS 3 Xrotation Yrotation Zrotation
						End Site
						{
							OFFSET 0.647335 0.327335 6.933458
						}
					}
				}
			}
		}
	}
}
MOTION
Frames: 4
Frame Time: 0.033333
-168.922195 111.597122 -33.162354 55.860152 -19.437226 -324.154713 1.167051 3.950431 0.719596 3.846157 4.202556 -5.325240 3.812199 4.126742 -5.409959 -1.988393 4.852310 -11.238562 -10.490086 3.366423 1.908023 -0.000003 0.000000 0.000000 5.714406 -14.034649 23.310372 -211.011905 -149.880319 -213.800617 0.000000 -44.177677 -0.000017 -68.450988 -25.935893 15.353553 -18.038251 6.424184 -2.444390 15.886883 4.597605 19.092506 2.348016 -2.146054 6.995771 -0.000003 0.000004 0.000001 6.710653 3.857801 -25.621209 0.311511 1.886700 -18.750524 0.311840 1.887630 -18.760102 0.000000 0.000001 0.000000 1.294735 5.948182 -37.842236 0.837974 3.021127 -30.998984 0.956478 3.209822 -33.178685 -0.000001 -0.000000 0.000002 1.594741 6.302934 -42.575076 0.972542 3.234239 -33.464621 1.088560 3.402962 -35.468718 0.000001 0.000001 -0.000001 -3.007464 16.130101 -30.324530 1.538333 3.957916 -42.466817 1.546479 3.966744 -42.584317 0.000000 0.000001 -0.000001 3.974082 19.454966 -10.877484 -18.976098 37.091370 18.152652 -0.000010 2.430745 -0.000007 -11.101682 8.828459 -7.350671 -32.494953 -11.446342 13.858392 12.598409 -19.187326 -18.306259 5.204578 -4.332526 -9.032200 -0.000000 0.000004 -0.000001 0.340090 -3.894736 20.247459 0.334000 -1.733575 21.810232 0.334019 -1.733593 21.810138 -0.000005 0.000000 -0.000002 0.689374 -4.639606 30.384793 0.662608 -2.396280 30.910520 0.472532 -2.045838 26.008665 -0.000002 0.000001 -0.000003 1.041479 -5.155238 38.076249 0.460572 -2.021183 25.671806 0.530320 -2.160166 27.583007 -0.000001 0.000001 0.000001 -8.861391 -15.919383 26.277642 1.010525 -2.898687 38.431176 1.015938 -2.905513 38.538424 0.000000 -0.000001 0.000001 -49.155782 -2.721593 5.584180 6.154305 9.210876 4.762456 36.197571 -12.561415 -29.582878 -5.164090 0.000009 -0.000010 0.000001 -0.000000 -0.000000 -11.799801 -20.390654 8.407398 97.921560 -3.111210 3.304066 34.086114 8.958305 29.940708 8.723740 0.000004 -0.000008 0.000000 -0.000003 0.000005 
-174.346832 115.917923 -34.607052 42.799687 4.573228 -334.568074 1.502566 3.486322 4.301361 4.733385 4.003294 0.009116 4.710810 4.037432 -0.086106 -7.324582 7.491004 -12.527136 -12.302549 12.031910 4.451913 -0.000000 -0.000003 -0.000000 3.652815 -11.597338 25.740606 -225.751904 -129.180966 -243.230413 -0.000003 -55.363458 -0.000027 -56.494069 -18.004401 14.651934 -19.988258 8.565125 -7.207619 15.761607 5.171553 19.200114 2.367889 -1.336382 7.104465 0.000005 0.000003 -0.000002 6.684127 3.990146 -31.501874 0.368572 2.046917 -20.411967 0.369095 2.048381 -20.427204 -0.000001 0.000003 -0.000000 1.704380 6.419317 -44.017448 0.931494 3.171373 -32.730161 1.065451 3.370347 -35.077393 0.000002 -0.000000 0.000002 2.057023 6.754359 -49.112496 1.134629 3.466641 -36.237835 1.259030 3.629926 -38.247376 -0.000001 -0.000003 0.000001 -1.894820 16.964870 -37.443182 1.675089 4.101966 -44.412349 1.683502 4.110490 -44.529804 0.000001 0.000000 -0.000001 4.533427 20.490897 -15.525693 -24.178593 33.076226 39.746134 -0.000005 6.094182 0.000008 -8.625352 8.759829 -7.308115 -24.860420 -8.167084 12.974650 11.336131 -22.442692 -16.707254 5.429717 -4.931053 -9.035854 -0.000001 0.000003 -0.000001 0.464534 -4.197913 24.282055 0.466554 -2.033558 25.840856 0.466561 -2.033556 25.840786 -0.000003 0.000002 -0.000002 0.906245 -4.974435 35.296577 0.897016 -2.749786 36.128129 0.767543 -2.563222 33.335285 0.000001 -0.000001 -0.000000 1.212929 -5.360722 41.372030 0.722139 -2.492882 32.305644 0.808686 -2.624637 34.244113 0.000001 0.000002 -0.000000 -7.389499 -15.825806 29.277538 1.315492 -3.245648 44.117035 1.321748 -3.252093 44.227411 0.000001 -0.000001 0.000002 -45.107051 -0.508957 9.845338 8.741813 8.698394 -3.211109 40.632925 -18.258875 -25.519045 -5.542899 0.000006 0.000006 0.000004 0.000000 -0.000001 -14.485988 -15.929717 14.770359 102.057643 -5.348209 1.237277 29.405628 9.189622 29.963108 12.312789 -0.000004 -0.000005 0.000000 -0.000003 -0.000001 
-179.935242 118.206650 -36.669582 30.983381 30.592981 -329.327215 1.317370 3.218984 3.235298 3.773881 3.582725 -0.172352 3.755133 3.603388 -0.230763 -11.660557 8.705255 -12.011278 -14.717314 16.904062 6.744992 -0.000000 0.000001 -0.000001 1.382908 -5.827684 25.498621 -256.667909 -119.690391 -285.078108 -0.000052 -69.884945 -0.000097 -36.998015 -8.339190 10.530139 -21.782172 11.376185 -12.375446 15.608849 5.891232 19.328472 2.401370 -0.430359 7.222198 -0.000001 0.000003 -0.000002 6.602527 4.152790 -38.112404 0.442855 2.236317 -22.400012 0.443675 2.238309 -22.421059 0.000002 -0.000003 0.000002 2.223728 6.894346 -50.983688 1.048635 3.346322 -34.790651 1.202072 3.556644 -37.338725 -0.000003 -0.000001 -0.000000 2.635841 7.199331 -56.511947 1.342674 3.733391 -39.550002 1.476672 3.889585 -41.565427 0.000005 0.000002 0.000001 -0.552115 17.816424 -45.580482 1.843523 4.266654 -46.720574 1.852277 4.274849 -46.837947 0.000000 0.000002 0.000002 3.557577 20.711826 -6.937028 -20.000117 36.000544 47.688797 -0.000003 8.112405 0.000018 -4.619371 7.739125 -7.747765 -17.752102 -4.914978 11.744096 10.236963 -25.097245 -15.302831 5.626122 -5.437310 -9.029638 0.000000 0.000006 -0.000001 0.591782 -4.457403 27.840689 0.600690 -2.289723 29.395427 0.600665 -2.289727 29.395413 0.000001 0.000002 -0.000003 1.123717 -5.256836 39.686015 1.134022 -3.047686 40.812095 1.093987 -3.000726 40.052987 0.000001 -0.000001 -0.000001 1.371462 -5.531120 44.238251 1.008454 -2.896088 38.390407 1.109832 -3.019492 40.355216 0.000003 0.000001 0.000002 -6.027394 -15.598538 31.855825 1.621697 -3.533635 49.291983 1.628672 -3.539635 49.405354 -0.000003 -0.000001 0.000000 -42.454151 0.221852 3.220447 8.628358 8.751541 2.929855 40.168582 -14.937535 -30.742572 -5.448528 0.000003 -0.000016 -0.000001 0.000002 -0.000001 -17.384585 -8.393193 13.168320 102.888303 -7.509260 -0.897241 23.979343 3.417476 30.059058 11.801787 0.000015 0.000011 0.000001 0.000001 0.000001 
-186.154953 118.487305 -38.570786 -0.424966 59.629812 -302.706307 2.143562 2.979431 -0.607842 3.330490 2.231734 0.568761 3.323413 2.630895 0.443470 -11.892907 9.681603 -16.160974 -20.250741 17.425576 6.309154 -0.000003 0.000001 -0.000000 0.928564 -11.912616 11.298189 -242.250253 -115.154107 -279.302500 0.000007 -79.073483 -0.000039 -31.320515 -7.249811 12.324873 -23.164896 14.741732 -17.688805 15.437846 6.713966 19.469968 2.448026 0.497809 7.332916 -0.000001 0.000004 0.000001 6.468467 4.370025 -45.115995 0.531799 2.440795 -24.579501 0.532922 2.443264 -24.605920 0.000001 0.000001 -0.000001 2.833434 7.326256 -58.383070 1.183514 3.532221 -37.038429 1.359460 3.753577 -39.807056 0.000000 -0.000004 0.000002 3.306979 7.589390 -64.385871 1.587556 4.010886 -43.175132 1.731552 4.158646 -45.196376 0.000003 0.000000 0.000001 0.984051 18.617562 -54.315047 2.034070 4.437872 -49.230887 2.043137 4.445640 -49.348031 -0.000000 0.000000 0.000001 3.647377 21.990439 -7.702806 -11.661237 34.058533 51.770460 0.000015 14.790527 -0.000009 -6.681934 5.510334 -8.064555 -12.039281 -2.214023 10.345716 9.467985 -26.847860 -14.264802 5.768384 -5.785836 -9.016061 -0.000002 -0.000002 -0.000001 0.695612 -4.642938 30.459184 0.709332 -2.472568 32.010600 0.709366 -2.472561 32.010583 0.000001 0.000000 -0.000000 1.300737 -5.457211 42.978559 1.328649 -3.259170 44.349163 1.381917 -3.312672 45.278318 -0.000002 -0.000001 -0.000000 1.490790 -5.648760 46.302044 1.259890 -3.187389 43.125968 1.372356 -3.303198 45.112597 0.000000 -0.000003 0.000000 -4.943043 -15.312254 33.676244 1.874392 -3.735794 53.276322 1.881921 -3.741389 53.392190 0.000000 -0.000002 0.000000 -40.355097 2.604079 -0.644498 9.400467 8.660526 -0.082796 39.289109 -12.887726 -30.856711 -4.477023 0.000007 -0.000012 0.000000 -0.000003 0.000002 -16.824023 -5.063195 12.441449 99.680068 -8.384815 -0.506015 19.642197 -4.936864 30.127572 14.003366 0.000005 -0.000000 0.000000 -0.000000 0.000002 
